<?xml version="1.0" standalone="no"?>
<!DOCTYPE svg PUBLIC "-//W3C//DTD SVG 20010904//EN"
 "http://www.w3.org/TR/2001/REC-SVG-20010904/DTD/svg10.dtd">
<svg version="1.0" xmlns="http://www.w3.org/2000/svg"
 width="512.000000pt" height="512.000000pt" viewBox="0 0 512.000000 512.000000"
 preserveAspectRatio="xMidYMid meet">
<metadata>
Created by potrace 1.11, written by Peter Selinger 2001-2013
</metadata>
<g transform="translate(0.000000,512.000000) scale(0.100000,-0.100000)"
fill="#000000" stroke="none">
<path d="M2169 4696 c-2 -2 -30 -6 -62 -10 -366 -38 -737 -192 -1027 -425 -79
-63 -220 -200 -269 -261 -20 -25 -44 -54 -54 -65 -17 -18 -143 -207 -174 -260
-96 -164 -186 -419 -224 -639 -24 -131 -32 -420 -16 -565 71 -654 488 -1253
1082 -1553 180 -91 420 -170 590 -194 28 -4 64 -9 80 -11 57 -9 390 -11 440
-3 28 4 75 11 105 15 59 8 157 28 207 43 31 10 32 10 75 -56 115 -178 308
-318 518 -374 79 -21 291 -30 375 -16 70 12 193 57 263 95 237 129 408 368
452 632 9 58 7 253 -4 306 -31 144 -115 320 -196 403 -12 13 -20 25 -19 26 2
2 31 6 64 10 142 14 255 66 354 164 117 115 174 259 167 426 -7 190 -102 355
-259 454 -95 59 -143 76 -257 88 -30 4 -57 8 -58 10 -2 1 -12 50 -22 109 -24
136 -60 262 -115 400 -46 114 -129 277 -171 332 -13 17 -24 34 -24 37 0 6 -89
127 -100 136 -3 3 -13 15 -22 28 -39 57 -207 221 -308 299 -159 124 -390 250
-565 308 -44 15 -89 31 -100 35 -27 11 -200 49 -250 56 -22 3 -51 8 -65 10
-32 6 -406 15 -411 10z"/>
</g>
</svg>
